Coordinates
version=1
nRows=4
nColumns=124
inDegrees=yes

Units are S.I. units (second, meters, Newtons, ...)
If the header above contains a line with 'inDegrees', this indicates whether rotational values are in degrees (yes) or radians (no).

endheader 
time	pelvis_tilt	pelvis_list	pelvis_rotation	pelvis_tx	pelvis_ty	pelvis_tz	hip_flexion_l	hip_adduction_l	hip_rotation_l	hip_flexion_r	hip_adduction_r	hip_rotation_r	knee_angle_l	knee_angle_r	ankle_angle_l	ankle_angle_r	subtalar_angle_l	subtalar_angle_r	mtp_angle_l	mtp_angle_r	lumbar_extension	lumbar_bending	lumbar_rotation	arm_flex_l	arm_add_l	arm_rot_l	arm_flex_r	arm_add_r	arm_rot_r	elbow_flex_l	elbow_flex_r	glut_med1_l/activation	glut_med2_l/activation	glut_med3_l/activation	glut_min1_l/activation	glut_min2_l/activation	glut_min3_l/activation	semimem_l/activation	semiten_l/activation	bifemlh_l/activation	bifemsh_l/activation	sar_l/activation	add_long_l/activation	add_brev_l/activation	add_mag1_l/activation	add_mag2_l/activation	add_mag3_l/activation	tfl_l/activation	pect_l/activation	grac_l/activation	glut_max1_l/activation	glut_max2_l/activation	glut_max3_l/activation	iliacus_l/activation	psoas_l/activation	quad_fem_l/activation	gem_l/activation	peri_l/activation	rect_fem_l/activation	vas_med_l/activation	vas_int_l/activation	vas_lat_l/activation	med_gas_l/activation	lat_gas_l/activation	soleus_l/activation	tib_post_l/activation	flex_dig_l/activation	flex_hal_l/activation	tib_ant_l/activation	per_brev_l/activation	per_long_l/activation	per_tert_l/activation	ext_dig_l/activation	ext_hal_l/activation	ercspn_l/activation	intobl_l/activation	extobl_l/activation	glut_med1_r/activation	glut_med2_r/activation	glut_med3_r/activation	glut_min1_r/activation	glut_min2_r/activation	glut_min3_r/activation	semimem_r/activation	semiten_r/activation	bifemlh_r/activation	bifemsh_r/activation	sar_r/activation	add_long_r/activation	add_brev_r/activation	add_mag1_r/activation	add_mag2_r/activation	add_mag3_r/activation	tfl_r/activation	pect_r/activation	grac_r/activation	glut_max1_r/activation	glut_max2_r/activation	glut_max3_r/activation	iliacus_r/activation	psoas_r/activation	quad_fem_r/activation	gem_r/activation	peri_r/activation	rect_fem_r/activation	vas_med_r/activation	vas_int_r/activation	vas_lat_r/activation	med_gas_r/activation	lat_gas_r/activation	soleus_r/activation	tib_post_r/activation	flex_dig_r/activation	flex_hal_r/activation	tib_ant_r/activation	per_brev_r/activation	per_long_r/activation	per_tert_r/activation	ext_dig_r/activation	ext_hal_r/activation	ercspn_r/activation	intobl_r/activation	extobl_r/activation	
          0.83120237	         -7.93029637	          0.54812077	         -4.82367778	          1.10821478	          0.92620597	         -0.00346103	         10.78864067	          4.66900196	          7.28644027	         20.47205677	          0.85694685	         -2.91744583	        -11.24442673	        -52.35369953	          9.35393800	         15.20981038	         -8.00041799	          1.19864876	          4.28399263	          2.08047318	          2.91511016	         -1.56520493	          0.48631603	         -3.97053787	        -13.44978048	         17.62648153	         -4.14756667	        -13.44987973	         15.66259291	          8.68885523	         68.31539669	          0.36962406	          0.28525612	          0.27783568	          0.45786429	          0.46829223	          0.45007400	          0.07040978	          0.06651129	          0.05956768	          0.05000024	          0.05000060	          0.05000013	          0.05000025	          0.05000115	          0.05000258	          0.08672404	          0.10175484	          0.05000070	          0.05000059	          0.17038337	          0.09896386	          0.06769511	          0.05000008	          0.05000008	          0.05000035	          0.05000175	          0.28354154	          0.10477757	          0.11211584	          0.11164223	          0.09057530	          0.24759058	          0.23636798	          0.05000323	          0.27681515	          0.09267750	          0.07053791	          0.06767620	          0.05000320	          0.05000320	          0.05000449	          0.05000149	          0.05000472	          0.05000007	          0.05000008	          0.05000007	          0.05000007	          0.05000008	          0.05000007	          0.05000051	          0.05000040	          0.05000028	          0.05000016	          0.05000005	          0.05000002	          0.27084283	          0.31225962	          0.18136379	          0.19723831	          0.05000069	          0.05000026	          0.05000005	          0.49174453	          0.31698762	          0.10223196	          0.05000011	          0.05000005	          0.05000004	          0.14421456	          0.15633899	          0.13805649	          0.20705886	          0.05000036	          0.05000089	          0.05000013	          0.05000012	          0.05000008	          0.05000003	          0.05000007	          0.05000001	          0.05000010	          0.05000054	          0.05000038	          0.41321025	          0.20863463	          0.08248906	          0.55599014	          0.46444883	          0.54257844	          0.09518531	          0.06553928	          0.05973347	
          0.85366730	         -7.92567487	         -0.02513521	         -3.85301863	          1.13451705	          0.92795183	         -0.00413469	          7.95600962	          4.08799532	          8.08976793	         23.60774856	          1.50874061	         -3.51632879	         -9.12352877	        -50.17953796	          8.90318679	         15.93184478	         -7.47229771	          0.29184020	          5.66579182	          1.49360725	          2.75011263	         -1.39329266	          0.27473840	         -2.17630680	        -13.44978690	         18.04345265	         -3.60934365	        -13.44973779	         15.20390499	         11.50709780	         61.61042864	          0.33066945	          0.25588327	          0.25279943	          0.43825282	          0.44285093	          0.42664304	          0.06441657	          0.05918582	          0.05219813	          0.05000030	          0.05000076	          0.05000012	          0.05000025	          0.05000103	          0.05000285	          0.06869788	          0.17780705	          0.05000067	          0.05000061	          0.15342666	          0.09227721	          0.05222293	          0.05000009	          0.05000009	          0.05000034	          0.05000192	          0.30130723	          0.09090539	          0.08624133	          0.08595645	          0.07278879	          0.29662853	          0.30121834	          0.05000031	          0.28527446	          0.10279032	          0.07056205	          0.06726110	          0.05000241	          0.05000118	          0.05000612	          0.05000368	          0.05000960	          0.05000007	          0.05000008	          0.05000007	          0.05000007	          0.05000009	          0.05000009	          0.05000048	          0.05000040	          0.05000029	          0.05000006	          0.05000005	          0.05000002	          0.19706042	          0.34259401	          0.20857589	          0.19426345	          0.05000063	          0.05000025	          0.05000005	          0.44308519	          0.27719919	          0.07438223	          0.05000011	          0.05000005	          0.05000004	          0.16495053	          0.17705920	          0.17688307	          0.23855691	          0.05000039	          0.05000020	          0.05000013	          0.05000012	          0.05000007	          0.05000004	          0.05000010	          0.05000002	          0.05000015	          0.05000074	          0.05000055	          0.42046482	          0.21372280	          0.10146518	          0.45529857	          0.45648484	          0.45868305	          0.09042479	          0.06943507	          0.06938139	
          0.87613223	         -7.92590008	         -0.58438903	         -2.82454175	          1.16097132	          0.92867304	         -0.00475412	          5.12434209	          3.42637092	          8.81444310	         26.39932118	          2.04453611	         -4.06328767	         -6.97107813	        -47.00404262	          8.45874972	         16.05313021	         -6.91429682	         -0.53930622	          7.13214901	          1.08073962	          2.60723975	         -1.23072903	          0.06385552	         -0.58487287	        -13.44988183	         18.12574052	         -2.98062690	        -13.44987365	         14.93849344	         15.16527072	         54.49553751	          0.30047815	          0.22781675	          0.22543913	          0.42500860	          0.42817087	          0.41658807	          0.05539581	          0.05004322	          0.05000131	          0.05000047	          0.05000114	          0.05000013	          0.05000025	          0.05000087	          0.05000210	          0.05000316	          0.24595180	          0.05000071	          0.05000068	          0.12010166	          0.07042532	          0.05000126	          0.05000013	          0.05000013	          0.05000033	          0.05000206	          0.32275149	          0.06614187	          0.06274921	          0.06254179	          0.05296103	          0.34665008	          0.36729510	          0.05000025	          0.29477671	          0.11928573	          0.08080932	          0.08161527	          0.05000152	          0.05000074	          0.05000454	          0.05000218	          0.05001053	          0.05000007	          0.05000008	          0.05000008	          0.05000007	          0.05000010	          0.05000010	          0.05000045	          0.05000040	          0.05000031	          0.05000003	          0.05000004	          0.05000002	          0.14337764	          0.37689991	          0.23751491	          0.19142348	          0.05000058	          0.05000024	          0.05000005	          0.39814586	          0.23776456	          0.05411932	          0.05000011	          0.05000005	          0.05000004	          0.19380763	          0.20209831	          0.21708213	          0.25405993	          0.05000043	          0.05000012	          0.05000010	          0.05000009	          0.05000005	          0.05000006	          0.05000014	          0.05000004	          0.05000023	          0.05000097	          0.05000080	          0.42329943	          0.21622953	          0.11754736	          0.34027240	          0.46571224	          0.36420118	          0.08813326	          0.07823096	          0.07368967	
          0.89859716	         -7.93240544	         -1.12232086	         -1.76039106	          1.18767876	          0.92827266	         -0.00531038	          2.31559400	          2.69795328	          9.45555713	         28.84123209	          2.46549335	         -4.55568872	         -4.85085610	        -43.00978137	          8.06778121	         15.72854076	         -6.32306404	         -1.27045423	          8.66674695	          0.79323772	          2.48902793	         -1.07512752	         -0.14551929	          0.70307255	        -13.44987434	         17.85311379	         -2.30085186	        -13.45013449	         14.91057223	         19.79075205	         47.10647938	          0.28244395	          0.21914262	          0.22115657	          0.45051288	          0.45297167	          0.41515742	          0.05000212	          0.05000124	          0.05000056	          0.17103186	          0.05000846	          0.05000013	          0.05000022	          0.05000064	          0.05000144	          0.05000080	          0.30002939	          0.05000071	          0.05000066	          0.09623744	          0.05126302	          0.05000057	          0.05000021	          0.05000018	          0.05000035	          0.05000300	          0.33289095	          0.05000150	          0.05000186	          0.05000166	          0.05000131	          0.39733000	          0.43456964	          0.05005724	          0.30356996	          0.13023376	          0.08568646	          0.09262649	          0.05000133	          0.05000139	          0.05000375	          0.06013816	          0.05000668	          0.05000007	          0.05000008	          0.05000007	          0.05000008	          0.05000011	          0.05000011	          0.05000045	          0.05000041	          0.05000034	          0.05000002	          0.05000004	          0.05000002	          0.10431902	          0.39480021	          0.25658850	          0.14522457	          0.05000057	          0.05000023	          0.05000006	          0.35386938	          0.19628457	          0.05000034	          0.05000012	          0.05000006	          0.05000005	          0.21997254	          0.22159124	          0.22013675	          0.27340076	          0.05000052	          0.05000011	          0.05000010	          0.05000009	          0.05000004	          0.05000007	          0.05000015	          0.05000005	          0.05000028	          0.05000118	          0.05000098	          0.42176090	          0.21439767	          0.12749383	          0.26967276	          0.48914457	          0.27676560	          0.09115944	          0.08607953	          0.07310619	
